<?xml version="1.0" standalone="no"?>
<!DOCTYPE svg PUBLIC "-//W3C//DTD SVG 20010904//EN"
 "http://www.w3.org/TR/2001/REC-SVG-20010904/DTD/svg10.dtd">
<svg version="1.0" xmlns="http://www.w3.org/2000/svg"
 width="2048.000000pt" height="1532.000000pt" viewBox="0 0 2048.000000 1532.000000"
 preserveAspectRatio="xMidYMid meet">

<g transform="translate(0.000000,1532.000000) scale(0.100000,-0.100000)"
fill="#000000" stroke="none">
<path d="M0 7660 l0 -7660 10240 0 10240 0 0 7660 0 7660 -10240 0 -10240 0 0
-7660z m4270 1789 c83 -21 215 -81 286 -129 25 -18 73 -58 108 -90 61 -58 63
-59 102 -50 72 17 264 12 347 -10 185 -47 317 -121 447 -250 133 -133 200
-253 250 -450 19 -74 21 -105 18 -235 -3 -136 -6 -155 -27 -188 -25 -41 -25
-39 36 -115 59 -73 130 -224 161 -345 39 -154 37 -295 -6 -441 -57 -192 -122
-296 -274 -441 -76 -73 -112 -99 -188 -137 -52 -25 -122 -54 -155 -63 -83 -24
-87 -26 -100 -70 -37 -123 -163 -293 -290 -390 -347 -265 -808 -260 -1144 12
-129 105 -117 98 -167 85 -146 -39 -406 10 -581 110 -82 46 -230 179 -288 258
-52 71 -110 194 -140 295 -24 81 -26 106 -26 245 0 110 5 169 15 205 9 28 16
57 16 66 0 9 -23 47 -51 85 -61 83 -121 205 -151 311 -19 66 -23 102 -23 238
0 154 2 163 32 252 74 211 187 375 326 471 85 59 238 137 287 146 19 4 43 10
53 12 10 3 34 40 56 88 87 187 222 338 382 429 94 53 246 105 347 117 92 11
252 1 342 -21z m3373 -844 c216 -38 412 -146 527 -290 102 -128 164 -274 186
-440 18 -132 18 -557 0 -690 -39 -294 -206 -529 -461 -649 -222 -106 -563
-125 -806 -46 -108 35 -156 61 -254 135 -173 131 -278 324 -320 585 -23 149
-21 525 5 660 67 355 220 555 517 680 155 65 413 89 606 55z m7275 -37 c5 -7
28 -65 50 -128 62 -175 174 -489 267 -745 46 -126 149 -414 230 -639 129 -361
175 -486 200 -548 7 -17 -6 -18 -184 -18 l-192 0 -19 46 c-19 43 -105 327
-112 369 -3 20 -13 20 -432 25 -235 3 -431 3 -435 0 -4 -3 -33 -84 -64 -180
-31 -96 -63 -193 -71 -215 l-14 -40 -191 -3 c-130 -2 -191 1 -191 8 0 6 8 27
19 48 10 20 46 114 79 207 33 94 77 215 97 270 20 55 54 150 75 210 21 61 67
191 103 290 123 339 305 850 337 945 18 52 34 98 37 103 2 4 93 7 202 7 147 0
201 -3 209 -12z m2260 -132 c2 -105 -1 -142 -10 -148 -7 -5 -101 -6 -209 -2
-108 3 -205 3 -216 0 -19 -6 -19 -26 -22 -756 l-3 -750 229 -2 228 -3 3 -142
3 -143 -645 0 -645 0 -3 138 c-2 75 -2 142 0 147 1 6 81 9 222 7 l220 -4 2
354 c1 194 2 533 2 753 l-1 400 -224 0 -224 0 2 140 c1 77 3 143 3 148 0 4
289 6 643 5 l642 -3 3 -139z m-7430 -401 c159 -50 280 -153 353 -297 71 -142
84 -217 83 -493 0 -218 -2 -248 -23 -325 -51 -191 -159 -325 -324 -404 -120
-57 -161 -66 -305 -66 -192 0 -296 43 -414 172 -31 35 -59 60 -62 58 -3 -3 -1
-23 5 -45 12 -53 10 -656 -4 -672 -7 -10 -57 -13 -188 -13 -179 0 -179 0 -180
23 -3 34 -3 34 -1 1075 l2 982 174 0 c96 0 177 -3 179 -7 3 -5 1 -53 -3 -108
-5 -55 -6 -102 -4 -104 3 -3 39 31 82 76 101 105 196 157 327 177 65 9 231 -6
303 -29z m1518 24 c214 -30 388 -141 483 -310 68 -121 74 -152 79 -396 l4
-223 -522 0 -522 0 7 -67 c17 -157 66 -248 169 -311 55 -35 64 -37 160 -40 89
-4 111 -1 181 23 88 29 120 50 198 130 l52 54 100 -59 c154 -90 145 -79 105
-131 -97 -126 -189 -194 -328 -242 -80 -28 -100 -31 -252 -35 -145 -3 -175 -1
-250 18 -159 40 -304 140 -390 268 -54 80 -90 202 -101 341 -12 162 -2 393 22
491 86 346 412 544 805 489z m1857 -16 c204 -60 326 -214 357 -446 6 -45 10
-299 10 -593 l0 -514 -187 0 -188 0 -1 503 c-1 488 -1 503 -22 557 -27 70 -71
123 -129 157 -38 22 -62 28 -131 31 -113 6 -179 -10 -231 -55 -52 -44 -82 -90
-106 -163 -17 -50 -19 -98 -20 -540 l-2 -485 -187 -3 -186 -2 0 770 0 770 183
-2 182 -3 -3 -75 c-1 -41 -5 -92 -8 -112 -9 -57 10 -47 61 32 68 105 178 170
325 191 74 10 220 1 283 -18z"/>
<path d="M3882 9215 c-184 -42 -352 -173 -436 -342 -71 -142 -69 -118 -75
-658 -4 -284 -3 -495 2 -502 5 -7 44 -32 86 -55 42 -23 103 -59 135 -80 33
-21 63 -38 68 -38 4 0 8 238 8 528 l0 528 28 26 c25 25 61 47 297 183 50 29
146 85 215 125 69 40 156 91 194 113 65 37 68 41 50 54 -44 32 -163 92 -214
108 -77 23 -277 29 -358 10z"/>
<path d="M4805 8939 c-89 -15 -183 -51 -278 -105 -50 -30 -139 -81 -197 -114
-58 -34 -192 -111 -298 -173 l-193 -112 -5 -172 c-3 -114 -1 -173 5 -173 10 0
387 214 691 392 176 103 224 128 247 128 25 0 138 -60 333 -175 91 -54 210
-123 265 -153 55 -30 119 -68 142 -84 23 -15 47 -28 54 -28 20 0 6 242 -20
320 -77 242 -298 421 -556 450 -101 11 -119 11 -190 -1z"/>
<path d="M3090 8573 c-34 -14 -188 -124 -221 -159 -107 -113 -189 -315 -189
-466 0 -81 39 -227 86 -320 27 -53 59 -95 118 -154 84 -83 79 -79 531 -341 72
-42 171 -100 220 -129 50 -29 97 -56 106 -59 9 -3 42 9 75 28 175 100 228 133
231 142 2 6 -23 23 -54 39 -53 26 -408 229 -697 400 -66 38 -131 80 -145 92
l-26 22 -2 424 c-1 232 -3 438 -3 456 0 32 -3 35 -30 25z"/>
<path d="M4615 8335 c-38 -25 -100 -60 -137 -78 -37 -18 -66 -36 -64 -42 3
-10 139 -92 371 -225 437 -250 493 -284 523 -318 l33 -36 -3 -443 c-3 -368 -1
-443 11 -443 38 0 143 71 229 157 101 100 145 176 178 304 25 98 16 302 -18
395 -52 143 -156 267 -299 355 -154 96 -712 412 -733 416 -13 2 -48 -13 -91
-42z"/>
<path d="M4120 8049 c-52 -33 -136 -82 -186 -109 l-91 -50 -5 -213 c-3 -116
-1 -220 3 -229 5 -9 55 -43 112 -74 56 -32 137 -79 179 -106 43 -26 84 -48 91
-48 21 0 188 92 350 193 l47 29 -2 221 -3 221 -40 27 c-45 30 -322 185 -345
193 -8 3 -58 -22 -110 -55z"/>
<path d="M4790 7257 c0 -404 -3 -527 -12 -539 -23 -28 -82 -65 -278 -178 -107
-62 -235 -136 -285 -165 -49 -29 -120 -68 -157 -86 -38 -18 -68 -37 -68 -40 0
-30 206 -126 306 -144 103 -19 154 -18 255 1 222 41 417 208 507 432 l27 67 3
506 3 507 -146 81 c-81 44 -148 81 -151 81 -2 0 -4 -235 -4 -523z"/>
<path d="M4550 7203 c-49 -32 -374 -221 -715 -414 -74 -43 -131 -69 -150 -69
-39 0 -101 30 -265 127 -74 44 -200 117 -280 163 -80 46 -171 101 -202 122
-31 21 -60 38 -64 38 -3 0 -4 -53 -2 -117 5 -103 10 -130 41 -216 48 -132 77
-179 166 -268 59 -59 95 -85 161 -117 127 -62 191 -75 340 -70 179 7 167 2
710 315 85 50 193 112 240 139 l85 49 3 178 c1 97 -1 177 -5 176 -5 0 -33 -16
-63 -36z"/>
<path d="M7271 8285 c-139 -39 -252 -131 -307 -250 -59 -128 -59 -130 -59
-505 0 -306 2 -352 18 -405 54 -176 170 -298 328 -345 101 -30 270 -31 369 -1
94 28 178 87 246 170 95 118 114 220 114 606 -1 287 -11 367 -61 470 -60 123
-147 200 -275 246 -79 28 -293 36 -373 14z"/>
<path d="M14690 8219 c-26 -102 -129 -433 -216 -698 -52 -157 -94 -286 -94
-288 0 -2 151 -3 335 -3 l335 0 -20 53 c-24 65 -169 520 -245 767 -31 102 -63
191 -70 199 -11 12 -15 7 -25 -30z"/>
<path d="M9345 7761 c-66 -18 -108 -43 -161 -95 -84 -85 -105 -140 -116 -305
-10 -156 -3 -306 19 -370 22 -65 78 -144 128 -180 73 -53 104 -61 222 -61 93
0 115 4 160 24 72 34 139 104 176 184 l31 67 0 231 1 230 -38 77 c-64 130
-169 199 -311 203 -45 2 -94 -1 -111 -5z"/>
<path d="M11035 7799 c-52 -15 -138 -73 -162 -107 -33 -50 -62 -134 -74 -218
-7 -41 -10 -76 -8 -78 2 -2 159 -6 349 -7 l345 -4 -1 93 c-1 84 -3 98 -35 159
-40 78 -105 135 -183 158 -54 16 -183 19 -231 4z"/>
</g>
</svg>
